<?xml version="1.0" standalone="no"?><!DOCTYPE svg PUBLIC "-//W3C//DTD SVG 1.1//EN" "http://www.w3.org/Graphics/SVG/1.1/DTD/svg11.dtd"><svg t="1716175976047" class="icon" viewBox="0 0 1024 1024" version="1.1" xmlns="http://www.w3.org/2000/svg" p-id="3879" xmlns:xlink="http://www.w3.org/1999/xlink" width="16" height="16"><path d="M887.1424 436.1216h21.6064c42.24 2.304 103.7312 22.272 106.7008 70.8608 3.6864 59.8528-61.7472 76.544-107.3152 80.8448h-24.7808c-27.4944-1.2288-51.5584-8.2944-72.192-21.2992-38.7072-24.4736-47.616-73.5232-9.5232-103.424 20.8896-16.4864 49.408-25.4976 85.504-26.9824z m102.2464 75.8272c0-15.104-9.728-29.5424-27.1872-40.2432-17.4592-10.6496-41.1136-16.64-65.792-16.64-12.1856 0-24.2688 1.4848-35.5328 4.352-11.264 2.816-21.5552 7.0144-30.208 12.288a64.8704 64.8704 0 0 0-20.1216 18.432 38.6048 38.6048 0 0 0-7.1168 21.8112c0 7.4752 2.4064 14.848 7.1168 21.76 4.608 6.912 11.52 13.2096 20.1216 18.432 8.6528 5.3248 18.944 9.5232 30.208 12.3904 11.264 2.816 23.3472 4.3008 35.5328 4.3008 24.6784 0 48.3328-5.9904 65.792-16.64 17.408-10.7008 27.2384-25.1392 27.2384-40.2432zM741.12 438.8864h-22.016a1.6896 1.6896 0 0 0-1.6896 1.7408v142.1824c0 0.9728 0.768 1.7408 1.6896 1.7408h22.016a1.6896 1.6896 0 0 0 1.6896-1.7408V440.6272a1.6896 1.6896 0 0 0-1.6896-1.7408zM70.912 516.6592a3.9936 3.9936 0 0 0-3.9936 0.1024 4.096 4.096 0 0 0-2.048 3.5328v59.648c0 3.1744-1.536 4.7616-4.7104 4.7616H11.9296c-2.6112 0-3.9424-1.3312-3.9424-3.9936V455.0656a16.2304 16.2304 0 0 1 23.9104-14.336L146.0736 501.76a7.0656 7.0656 0 0 0 6.8096-0.0512l114.0224-61.1328a16.1792 16.1792 0 0 1 21.8112 6.2976 16.384 16.384 0 0 1 2.1504 8.0384v125.7984c0 2.6112-1.3312 3.9424-3.9936 3.9424h-48.9984c-2.56 0-3.8912-1.3312-3.8912-3.9424v-57.856a6.0416 6.0416 0 0 0-2.816-5.0688 5.888 5.888 0 0 0-5.7856-0.2048l-67.84 35.0208a21.1968 21.1968 0 0 1-19.6608-0.1536l-66.9696-35.84zM387.7888 439.1936h-48.64a4.096 4.096 0 0 0-4.1472 4.096v137.5744c0 2.2528 1.8432 4.096 4.096 4.096h48.64a4.096 4.096 0 0 0 4.1472-4.096V443.2896a4.096 4.096 0 0 0-4.096-4.096zM608.512 510.1568a5.4272 5.4272 0 0 0 7.7824-4.9664l0.0512-62.8224c0-2.0992 1.024-3.1744 3.1744-3.1744h50.5344c2.1504 0 3.1744 1.024 3.1744 3.1744v126.6176a16.0256 16.0256 0 0 1-22.7328 14.5408l-151.4496-70.2464a4.1984 4.1984 0 0 0-5.9392 3.7888v62.7712a4.7616 4.7616 0 0 1-4.7616 4.7616h-48.9984c-2.048 0-3.1232-1.024-3.1232-3.1744V454.7584a16.0768 16.0768 0 0 1 22.8352-14.5408l149.4528 69.9392z" fill="#C72C48" p-id="3880"></path></svg>