<?xml version="1.0" standalone="no"?><!DOCTYPE svg PUBLIC "-//W3C//DTD SVG 1.1//EN" "http://www.w3.org/Graphics/SVG/1.1/DTD/svg11.dtd"><svg t="1716970973441" class="icon" viewBox="0 0 1024 1024" version="1.1" xmlns="http://www.w3.org/2000/svg" p-id="3009" xmlns:xlink="http://www.w3.org/1999/xlink" width="16" height="16"><path d="M36.977778 491.377778v115.2c0 2.133333-2.133333 4.977778-4.977778 4.977778H4.977778c-4.977778 0-4.977778-2.844444-4.977778-7.822223V435.2c0-9.955556 2.133333-17.066667 12.088889-19.2 9.955556-2.133333 17.066667 0 24.177778 7.111111 17.066667 19.2 32 41.244444 49.066666 61.155556 12.088889 17.066667 27.022222 32 39.111111 49.066666l2.133334 2.133334c2.133333-2.133333 0-4.977778 0-7.111111V423.111111c0-7.111111 0-7.111111 9.955555-7.111111h24.177778c4.977778 0 7.111111 2.133333 7.111111 7.111111v166.4c0 9.955556-2.133333 17.066667-12.088889 22.044445-9.955556 4.977778-19.2 2.133333-24.177777-4.977778l-29.155556-36.977778c-19.2-24.177778-41.244444-49.066667-61.155556-73.244444-2.133333-4.977778-2.133333-4.977778-4.266666-4.977778zM874.666667 611.555556h-44.088889c-4.977778 0-7.111111-2.133333-7.111111-7.111112v-27.022222c0-2.133333 0-4.977778 4.977777-4.977778h85.333334c14.933333 0 22.044444-7.111111 22.044444-19.2 0-9.955556-7.111111-17.066667-19.2-17.066666h-39.111111c-22.044444 0-41.244444-9.955556-51.2-32-19.2-39.111111 2.133333-88.177778 54.044445-88.177778h78.222222c7.111111 0 7.111111 0 7.111111 7.111111v27.022222c0 4.977778-2.133333 7.111111-7.111111 7.111111h-78.222222c-17.066667 2.133333-22.044444 14.933333-14.933334 29.155556 2.133333 7.111111 12.088889 9.955556 19.2 9.955556h39.111111c19.2 0 36.977778 7.111111 49.066667 24.177777 9.955556 14.933333 12.088889 29.155556 9.955556 46.222223-4.977778 29.155556-32 46.222222-56.177778 46.222222-22.044444-1.422222-36.977778-1.422222-51.911111-1.422222z" p-id="3010"></path><path d="M789.333333 457.244444c-19.2-29.155556-46.222222-46.222222-83.2-46.222222-29.155556 0-54.044444 9.955556-76.088889 29.155556-22.044444 22.044444-44.088889 44.088889-66.133333 63.288889-4.977778 4.977778-2.133333 4.977778 0 9.955555l61.155556 61.155556c22.044444 22.044444 44.088889 34.133333 76.088889 34.133333h17.066666c17.066667-2.133333 32-9.955556 46.222222-22.044444 19.2-14.933333 29.155556-34.133333 34.133334-58.311111 7.822222-24.177778 5.688889-49.066667-9.244445-71.111112z m-66.133333 110.222223c-24.177778 7.111111-46.222222 0-63.288889-17.066667L625.777778 516.266667c-4.977778-4.977778-4.977778-7.111111 0-9.955556l39.111111-39.111111c12.088889-12.088889 24.177778-14.933333 39.111111-14.933333 27.022222 0 54.044444 22.044444 58.311111 49.066666 4.977778 27.022222-12.088889 59.022222-39.111111 66.133334z" fill="#00E4EF" p-id="3011"></path><path d="M552.533333 530.488889c-2.133333-4.977778-4.977778-2.133333-9.955555 0L518.4 554.666667c-17.066667 17.066667-49.066667 22.044444-71.111111 7.111111-19.2-12.088889-34.133333-39.111111-27.022222-63.288889 9.955556-44.088889 63.288889-61.155556 97.422222-32l24.177778 24.177778c2.133333 2.133333 4.977778 4.977778 7.111111 0l22.044444-22.044445c2.133333-2.133333 2.133333-4.977778 0-7.111111L561.777778 452.266667c-9.955556-9.955556-19.2-19.2-29.155556-27.022223-24.177778-14.933333-51.2-19.2-80.355555-12.088888-32 7.111111-54.044444 29.155556-66.133334 58.311111-7.111111 14.933333-7.111111 29.155556-7.111111 44.088889 0 27.022222 9.955556 49.066667 29.155556 66.133333 19.2 19.2 44.088889 29.155556 71.111111 29.155555s49.066667-7.111111 68.266667-27.022222l27.022222-27.022222c2.133333-2.133333 2.133333-4.977778 0-7.111111-7.822222-4.266667-14.933333-11.377778-22.044445-19.2z" fill="#4A9EFF" p-id="3012"></path><path d="M386.133333 608.711111h-39.111111c-2.133333 0-4.977778 0-7.111111-4.977778-14.933333-39.111111-32-78.222222-46.222222-119.466666-2.133333-7.111111-4.977778-14.933333-9.955556-22.044445 0 0 0-2.133333-2.133333-2.133333s-2.133333 2.133333-2.133333 2.133333l-29.155556 73.244445c-9.955556 22.044444-17.066667 46.222222-27.022222 68.266666 0 2.133333-2.133333 4.977778-7.111111 4.977778h-32c-4.977778 0-7.111111-2.133333-4.977778-7.111111l36.977778-95.288889c7.111111-22.044444 17.066667-44.088889 24.177778-63.288889 4.977778-12.088889 12.088889-24.177778 27.022222-29.155555 14.933333-7.111111 32 0 41.244444 14.933333 9.955556 14.933333 14.933333 29.155556 19.2 44.088889l51.2 132.266667c7.111111 1.422222 7.111111 3.555556 7.111111 3.555555z" p-id="3013"></path><path d="M1004.8 611.555556c-9.955556 0-17.066667-7.111111-17.066667-17.066667s7.111111-17.066667 19.2-17.066667c9.955556 0 17.066667 7.111111 17.066667 17.066667-2.133333 9.244444-9.955556 17.066667-19.2 17.066667z" fill="#04E5EF" p-id="3014"></path></svg>